<?xml version="1.0" encoding="UTF-8" standalone="no"?><svg xmlns="http://www.w3.org/2000/svg" xmlns:xlink="http://www.w3.org/1999/xlink" contentScriptType="application/ecmascript" contentStyleType="text/css" height="304px" preserveAspectRatio="none" style="width:885px;height:304px;background:#FFFFFF;" version="1.1" viewBox="0 0 885 304" width="885px" zoomAndPan="magnify"><defs><filter height="300%" id="f1tec23bm4ad9d" width="300%" x="-1" y="-1"><feGaussianBlur result="blurOut" stdDeviation="2.0"/><feColorMatrix in="blurOut" result="blurOut2" type="matrix" values="0 0 0 0 0 0 0 0 0 0 0 0 0 0 0 0 0 0 .4 0"/><feOffset dx="4.0" dy="4.0" in="blurOut2" result="blurOut3"/><feBlend in="SourceGraphic" in2="blurOut3" mode="normal"/></filter></defs><g><line style="stroke:#A80036;stroke-width:1.0;stroke-dasharray:5.0,5.0;" x1="47" x2="47" y1="40.2969" y2="261.0938"/><line style="stroke:#A80036;stroke-width:1.0;stroke-dasharray:5.0,5.0;" x1="201.5" x2="201.5" y1="40.2969" y2="261.0938"/><line style="stroke:#A80036;stroke-width:1.0;stroke-dasharray:5.0,5.0;" x1="475.5" x2="475.5" y1="40.2969" y2="261.0938"/><line style="stroke:#A80036;stroke-width:1.0;stroke-dasharray:5.0,5.0;" x1="839" x2="839" y1="40.2969" y2="261.0938"/><rect fill="#FEFECE" filter="url(#f1tec23bm4ad9d)" height="30.2969" style="stroke:#A80036;stroke-width:1.5;" width="80" x="5" y="5"/><text fill="#000000" font-family="sans-serif" font-size="14" lengthAdjust="spacing" textLength="66" x="12" y="24.9951">Developer</text><rect fill="#FEFECE" filter="url(#f1tec23bm4ad9d)" height="30.2969" style="stroke:#A80036;stroke-width:1.5;" width="80" x="5" y="260.0938"/><text fill="#000000" font-family="sans-serif" font-size="14" lengthAdjust="spacing" textLength="66" x="12" y="280.0889">Developer</text><rect fill="#FEFECE" filter="url(#f1tec23bm4ad9d)" height="30.2969" style="stroke:#A80036;stroke-width:1.5;" width="107" x="146.5" y="5"/><text fill="#000000" font-family="sans-serif" font-size="14" lengthAdjust="spacing" textLength="93" x="153.5" y="24.9951">GitHubActions</text><rect fill="#FEFECE" filter="url(#f1tec23bm4ad9d)" height="30.2969" style="stroke:#A80036;stroke-width:1.5;" width="107" x="146.5" y="260.0938"/><text fill="#000000" font-family="sans-serif" font-size="14" lengthAdjust="spacing" textLength="93" x="153.5" y="280.0889">GitHubActions</text><rect fill="#FEFECE" filter="url(#f1tec23bm4ad9d)" height="30.2969" style="stroke:#A80036;stroke-width:1.5;" width="59" x="444.5" y="5"/><text fill="#000000" font-family="sans-serif" font-size="14" lengthAdjust="spacing" textLength="45" x="451.5" y="24.9951">GitHub</text><rect fill="#FEFECE" filter="url(#f1tec23bm4ad9d)" height="30.2969" style="stroke:#A80036;stroke-width:1.5;" width="59" x="444.5" y="260.0938"/><text fill="#000000" font-family="sans-serif" font-size="14" lengthAdjust="spacing" textLength="45" x="451.5" y="280.0889">GitHub</text><rect fill="#FEFECE" filter="url(#f1tec23bm4ad9d)" height="30.2969" style="stroke:#A80036;stroke-width:1.5;" width="68" x="803" y="5"/><text fill="#000000" font-family="sans-serif" font-size="14" lengthAdjust="spacing" textLength="54" x="810" y="24.9951">Poeditor</text><rect fill="#FEFECE" filter="url(#f1tec23bm4ad9d)" height="30.2969" style="stroke:#A80036;stroke-width:1.5;" width="68" x="803" y="260.0938"/><text fill="#000000" font-family="sans-serif" font-size="14" lengthAdjust="spacing" textLength="54" x="810" y="280.0889">Poeditor</text><polygon fill="#A80036" points="190,67.4297,200,71.4297,190,75.4297,194,71.4297" style="stroke:#A80036;stroke-width:1.0;"/><line style="stroke:#A80036;stroke-width:1.0;" x1="47" x2="196" y1="71.4297" y2="71.4297"/><text fill="#000000" font-family="sans-serif" font-size="13" lengthAdjust="spacing" textLength="131" x="54" y="66.3638">Merge PR into develop</text><line style="stroke:#A80036;stroke-width:1.0;" x1="202" x2="244" y1="100.5625" y2="100.5625"/><line style="stroke:#A80036;stroke-width:1.0;" x1="244" x2="244" y1="100.5625" y2="113.5625"/><line style="stroke:#A80036;stroke-width:1.0;" x1="203" x2="244" y1="113.5625" y2="113.5625"/><polygon fill="#A80036" points="213,109.5625,203,113.5625,213,117.5625,209,113.5625" style="stroke:#A80036;stroke-width:1.0;"/><text fill="#000000" font-family="sans-serif" font-size="13" lengthAdjust="spacing" textLength="245" x="209" y="95.4966">Scan codebase and write strings to .po file</text><line style="stroke:#A80036;stroke-width:1.0;" x1="202" x2="244" y1="142.6953" y2="142.6953"/><line style="stroke:#A80036;stroke-width:1.0;" x1="244" x2="244" y1="142.6953" y2="155.6953"/><line style="stroke:#A80036;stroke-width:1.0;" x1="203" x2="244" y1="155.6953" y2="155.6953"/><polygon fill="#A80036" points="213,151.6953,203,155.6953,213,159.6953,209,155.6953" style="stroke:#A80036;stroke-width:1.0;"/><text fill="#000000" font-family="sans-serif" font-size="13" lengthAdjust="spacing" textLength="260" x="209" y="137.6294">Fill .po file with already imported translations</text><polygon fill="#A80036" points="464,180.8281,474,184.8281,464,188.8281,468,184.8281" style="stroke:#A80036;stroke-width:1.0;"/><line style="stroke:#A80036;stroke-width:1.0;" x1="202" x2="470" y1="184.8281" y2="184.8281"/><text fill="#000000" font-family="sans-serif" font-size="13" lengthAdjust="spacing" textLength="147" x="209" y="179.7622">Commit updated *.po file</text><polygon fill="#A80036" points="827,209.9609,837,213.9609,827,217.9609,831,213.9609" style="stroke:#A80036;stroke-width:1.0;"/><line style="stroke:#A80036;stroke-width:1.0;" x1="476" x2="833" y1="213.9609" y2="213.9609"/><text fill="#000000" font-family="sans-serif" font-size="13" lengthAdjust="spacing" textLength="339" x="483" y="208.895">Webhook tells POEditor to import new strings from GitHub</text><polygon fill="#A80036" points="487,239.0938,477,243.0938,487,247.0938,483,243.0938" style="stroke:#A80036;stroke-width:1.0;"/><line style="stroke:#A80036;stroke-width:1.0;" x1="481" x2="838" y1="243.0938" y2="243.0938"/><text fill="#000000" font-family="sans-serif" font-size="13" lengthAdjust="spacing" textLength="143" x="493" y="238.0278">Import updated *.po file</text><!--MD5=[5ce8d30932d2bc8eda078fa6b6ab04a8]
@startuml
Developer -> GitHubActions: Merge PR into develop
GitHubActions -> GitHubActions: Scan codebase and write strings to .po file
GitHubActions -> GitHubActions: Fill .po file with already imported translations
GitHubActions -> GitHub: Commit updated *.po file
GitHub -> Poeditor: Webhook tells POEditor to import new strings from GitHub
Poeditor -> GitHub: Import updated *.po file
@enduml

PlantUML version 1.2021.9(Sun Jul 25 10:13:56 GMT 2021)
(GPL source distribution)
Java Runtime: OpenJDK Runtime Environment
JVM: OpenJDK 64-Bit Server VM
Default Encoding: UTF-8
Language: en
Country: US
--></g></svg>